<svg width="8" height="8" viewBox="0 0 8 8" fill="none" xmlns="http://www.w3.org/2000/svg">
<g clip-path="url(#clip0_13_19129)">
<path d="M0.140066 2.04331C0.0234375 2.47731 0.0234375 3.07603 0.0234375 4C0.0234375 5.31239 0.0234375 5.96861 0.357658 6.42861C0.465596 6.57719 0.596247 6.70784 0.744812 6.81578C1.20483 7.15 1.86103 7.15 3.17344 7.15H3.87344C5.18583 7.15 5.84205 7.15 6.30205 6.81578C6.45063 6.70784 6.58128 6.57719 6.68922 6.42861C7.02344 5.96861 7.02344 5.31239 7.02344 4C7.02344 3.07295 7.02344 2.47332 6.90563 2.03898L6.16968 2.77495C5.59838 3.34625 5.15066 3.79396 4.75439 4.09632C4.34877 4.40579 3.96629 4.58761 3.52339 4.58761C3.08048 4.58761 2.69802 4.40579 2.2924 4.09632C1.89611 3.79396 1.4484 3.34624 0.877101 2.77494L0.192787 2.09063L0.140066 2.04331Z" fill="black"/>
<path d="M0.140066 2.04331C0.0234375 2.47731 0.0234375 3.07603 0.0234375 4C0.0234375 5.31239 0.0234375 5.96861 0.357658 6.42861C0.465596 6.57719 0.596247 6.70784 0.744812 6.81578C1.20483 7.15 1.86103 7.15 3.17344 7.15H3.87344C5.18583 7.15 5.84205 7.15 6.30205 6.81578C6.45063 6.70784 6.58128 6.57719 6.68922 6.42861C7.02344 5.96861 7.02344 5.31239 7.02344 4C7.02344 3.07295 7.02344 2.47332 6.90563 2.03898L6.16968 2.77495C5.59838 3.34625 5.15066 3.79396 4.75439 4.09632C4.34877 4.40579 3.96629 4.58761 3.52339 4.58761C3.08048 4.58761 2.69802 4.40579 2.2924 4.09632C1.89611 3.79396 1.4484 3.34624 0.877101 2.77494L0.192787 2.09063L0.140066 2.04331Z" fill="url(#paint0_linear_13_19129)"/>
<path d="M0.373047 1.5501L0.411144 1.58162L0.553601 1.70947L1.23374 2.38961C1.82232 2.97819 2.24548 3.40056 2.61046 3.67903C2.96939 3.95288 3.24103 4.06273 3.523 4.06273C3.80497 4.06273 4.07661 3.95288 4.43553 3.67903C4.80051 3.40056 5.22366 2.97819 5.81226 2.38961L6.62002 1.58184L6.66398 1.53812C6.55604 1.38956 6.45024 1.29226 6.30166 1.18432C5.84166 0.850098 5.18544 0.850098 3.87305 0.850098H3.17305C1.86064 0.850098 1.20444 0.850098 0.744421 1.18432C0.595857 1.29226 0.480987 1.40153 0.373047 1.5501Z" fill="black"/>
<path d="M0.373047 1.5501L0.411144 1.58162L0.553601 1.70947L1.23374 2.38961C1.82232 2.97819 2.24548 3.40056 2.61046 3.67903C2.96939 3.95288 3.24103 4.06273 3.523 4.06273C3.80497 4.06273 4.07661 3.95288 4.43553 3.67903C4.80051 3.40056 5.22366 2.97819 5.81226 2.38961L6.62002 1.58184L6.66398 1.53812C6.55604 1.38956 6.45024 1.29226 6.30166 1.18432C5.84166 0.850098 5.18544 0.850098 3.87305 0.850098H3.17305C1.86064 0.850098 1.20444 0.850098 0.744421 1.18432C0.595857 1.29226 0.480987 1.40153 0.373047 1.5501Z" fill="url(#paint1_linear_13_19129)"/>
</g>
<defs>
<linearGradient id="paint0_linear_13_19129" x1="-0.277563" y1="2.54658" x2="7.12325" y2="2.72323" gradientUnits="userSpaceOnUse">
<stop stop-color="#D0A847"/>
<stop offset="0.229056" stop-color="#FCF6BA"/>
<stop offset="0.510853" stop-color="#B58727"/>
<stop offset="0.772758" stop-color="#FBF5B7"/>
<stop offset="1" stop-color="#AB781D"/>
</linearGradient>
<linearGradient id="paint1_linear_13_19129" x1="0.102537" y1="1.16916" x2="6.74973" y2="1.39601" gradientUnits="userSpaceOnUse">
<stop stop-color="#D0A847"/>
<stop offset="0.229056" stop-color="#FCF6BA"/>
<stop offset="0.510853" stop-color="#B58727"/>
<stop offset="0.772758" stop-color="#FBF5B7"/>
<stop offset="1" stop-color="#AB781D"/>
</linearGradient>
<clipPath id="clip0_13_19129">
<rect width="7" height="7" fill="white" transform="translate(0.0273438 0.5)"/>
</clipPath>
</defs>
</svg>
