<svg width="8" height="8" viewBox="0 0 8 8" fill="none" xmlns="http://www.w3.org/2000/svg">
<g clip-path="url(#clip0_13_19117)">
<path d="M3.52601 0.500488C1.91593 0.500488 0.609375 1.80555 0.609375 3.41713C0.609375 4.22204 0.935757 4.95118 1.4639 5.47924L3.52601 7.50049L5.58874 5.47879C6.1168 4.95125 6.44327 4.22213 6.44265 3.4166C6.44265 1.80677 5.13697 0.500488 3.52601 0.500488ZM3.52601 4.87549C2.72048 4.87549 2.06765 4.22266 2.06765 3.41713C2.06765 2.6116 2.72048 1.95885 3.52601 1.95885C4.33154 1.95885 4.98438 2.6116 4.98438 3.41713C4.98438 4.22266 4.33154 4.87549 3.52601 4.87549Z" fill="black"/>
<path d="M3.52601 0.500488C1.91593 0.500488 0.609375 1.80555 0.609375 3.41713C0.609375 4.22204 0.935757 4.95118 1.4639 5.47924L3.52601 7.50049L5.58874 5.47879C6.1168 4.95125 6.44327 4.22213 6.44265 3.4166C6.44265 1.80677 5.13697 0.500488 3.52601 0.500488ZM3.52601 4.87549C2.72048 4.87549 2.06765 4.22266 2.06765 3.41713C2.06765 2.6116 2.72048 1.95885 3.52601 1.95885C4.33154 1.95885 4.98438 2.6116 4.98438 3.41713C4.98438 4.22266 4.33154 4.87549 3.52601 4.87549Z" fill="url(#paint0_linear_13_19117)"/>
</g>
<defs>
<linearGradient id="paint0_linear_13_19117" x1="0.358544" y1="1.19569" x2="6.52804" y2="1.28529" gradientUnits="userSpaceOnUse">
<stop stop-color="#D0A847"/>
<stop offset="0.229056" stop-color="#FCF6BA"/>
<stop offset="0.510853" stop-color="#B58727"/>
<stop offset="0.772758" stop-color="#FBF5B7"/>
<stop offset="1" stop-color="#AB781D"/>
</linearGradient>
<clipPath id="clip0_13_19117">
<rect width="7" height="7" fill="white" transform="translate(0.0273438 0.5)"/>
</clipPath>
</defs>
</svg>
