<svg width="8" height="8" viewBox="0 0 8 8" fill="none" xmlns="http://www.w3.org/2000/svg">
<g clip-path="url(#clip0_13_19123)">
<path d="M5.99794 1.52475C4.63091 0.158126 2.41482 0.158454 1.04819 1.52551C-0.318436 2.89256 -0.318108 5.10863 1.04894 6.47526C2.41599 7.84189 4.63207 7.84156 5.99869 6.47451C6.65503 5.81797 7.02365 4.92759 7.02344 3.99925C7.02325 3.07107 6.65437 2.18098 5.99794 1.52475ZM5.32407 5.37546C5.32392 5.37562 5.32377 5.37578 5.32361 5.37593V5.37477L5.14627 5.55093C4.91692 5.78317 4.5829 5.87873 4.26543 5.80293C3.94558 5.71732 3.64151 5.58104 3.36477 5.39927C3.10765 5.23495 2.86938 5.04286 2.65427 4.82643C2.45634 4.62995 2.27852 4.41421 2.12343 4.18243C1.95379 3.93303 1.81952 3.66134 1.72443 3.37509C1.61542 3.03882 1.70575 2.66983 1.95777 2.42193L2.16543 2.21427C2.22317 2.15627 2.31698 2.15607 2.37496 2.2138C2.37511 2.21395 2.37528 2.2141 2.37543 2.21427L3.03109 2.86993C3.08909 2.92767 3.08929 3.02148 3.03156 3.07946C3.03141 3.07962 3.03126 3.07977 3.03109 3.07993L2.64609 3.46493C2.53562 3.5742 2.52173 3.74783 2.61343 3.87327C2.75268 4.06437 2.90677 4.2442 3.07427 4.41111C3.26101 4.59866 3.46403 4.76927 3.68093 4.92094C3.80626 5.00836 3.97617 4.99362 4.08459 4.88594L4.45675 4.50794C4.51449 4.44995 4.60831 4.44974 4.66629 4.50748C4.66644 4.50763 4.66659 4.50778 4.66675 4.50794L5.32359 5.16594C5.3816 5.22367 5.38181 5.31747 5.32407 5.37546Z" fill="black"/>
<path d="M5.99794 1.52475C4.63091 0.158126 2.41482 0.158454 1.04819 1.52551C-0.318436 2.89256 -0.318108 5.10863 1.04894 6.47526C2.41599 7.84189 4.63207 7.84156 5.99869 6.47451C6.65503 5.81797 7.02365 4.92759 7.02344 3.99925C7.02325 3.07107 6.65437 2.18098 5.99794 1.52475ZM5.32407 5.37546C5.32392 5.37562 5.32377 5.37578 5.32361 5.37593V5.37477L5.14627 5.55093C4.91692 5.78317 4.5829 5.87873 4.26543 5.80293C3.94558 5.71732 3.64151 5.58104 3.36477 5.39927C3.10765 5.23495 2.86938 5.04286 2.65427 4.82643C2.45634 4.62995 2.27852 4.41421 2.12343 4.18243C1.95379 3.93303 1.81952 3.66134 1.72443 3.37509C1.61542 3.03882 1.70575 2.66983 1.95777 2.42193L2.16543 2.21427C2.22317 2.15627 2.31698 2.15607 2.37496 2.2138C2.37511 2.21395 2.37528 2.2141 2.37543 2.21427L3.03109 2.86993C3.08909 2.92767 3.08929 3.02148 3.03156 3.07946C3.03141 3.07962 3.03126 3.07977 3.03109 3.07993L2.64609 3.46493C2.53562 3.5742 2.52173 3.74783 2.61343 3.87327C2.75268 4.06437 2.90677 4.2442 3.07427 4.41111C3.26101 4.59866 3.46403 4.76927 3.68093 4.92094C3.80626 5.00836 3.97617 4.99362 4.08459 4.88594L4.45675 4.50794C4.51449 4.44995 4.60831 4.44974 4.66629 4.50748C4.66644 4.50763 4.66659 4.50778 4.66675 4.50794L5.32359 5.16594C5.3816 5.22367 5.38181 5.31747 5.32407 5.37546Z" fill="url(#paint0_linear_13_19123)"/>
</g>
<defs>
<linearGradient id="paint0_linear_13_19123" x1="-0.277563" y1="1.19521" x2="7.12522" y2="1.32422" gradientUnits="userSpaceOnUse">
<stop stop-color="#D0A847"/>
<stop offset="0.229056" stop-color="#FCF6BA"/>
<stop offset="0.510853" stop-color="#B58727"/>
<stop offset="0.772758" stop-color="#FBF5B7"/>
<stop offset="1" stop-color="#AB781D"/>
</linearGradient>
<clipPath id="clip0_13_19123">
<rect width="7" height="7" fill="white" transform="translate(0.0273438 0.5)"/>
</clipPath>
</defs>
</svg>
